<svg width="124" height="50" viewBox="0 0 124 50" fill="none" xmlns="http://www.w3.org/2000/svg">
<g clip-path="url(#clip0_502_2)">
<rect width="124" height="50" fill="black"/>
<path d="M17.3473 22.4545V25.3949H9.43288V22.4545H17.3473ZM11.0909 19.4489H15.0849V31.055C15.0849 31.3001 15.123 31.4988 15.1992 31.6513C15.2809 31.7983 15.398 31.9045 15.5504 31.9698C15.7029 32.0297 15.8853 32.0597 16.0977 32.0597C16.2501 32.0597 16.4107 32.046 16.5795 32.0188C16.7538 31.9862 16.8845 31.9589 16.9716 31.9371L17.576 34.8203C17.3854 34.8748 17.1159 34.9428 16.7674 35.0245C16.4244 35.1062 16.0133 35.1579 15.5341 35.1797C14.5975 35.2232 13.7944 35.1143 13.1246 34.853C12.4603 34.5862 11.9512 34.1723 11.5973 33.6115C11.2488 33.0507 11.08 32.3455 11.0909 31.4961V19.4489ZM31.5549 22.4545L27.2505 35H22.6767L18.3805 22.4545H22.5868L24.8983 31.0959H25.0289L27.3485 22.4545H31.5549ZM41.1151 26.6935V29.7727H33.3722V26.6935H41.1151ZM43.9349 35V22.4545H47.7329V24.7578H47.8717C48.1331 23.9955 48.5741 23.3938 49.1949 22.9528C49.8156 22.5117 50.5561 22.2912 51.4165 22.2912C52.2877 22.2912 53.0336 22.5144 53.6544 22.9609C54.2751 23.4074 54.6699 24.0064 54.8387 24.7578H54.9694C55.2035 24.0118 55.6609 23.4156 56.3415 22.9691C57.0222 22.5172 57.8253 22.2912 58.751 22.2912C59.938 22.2912 60.9018 22.6723 61.6423 23.4347C62.3828 24.1915 62.7531 25.2315 62.7531 26.5547V35H58.7591V27.4695C58.7591 26.8433 58.5985 26.3668 58.2773 26.0401C57.956 25.708 57.5394 25.5419 57.0276 25.5419C56.4777 25.5419 56.0448 25.7216 55.729 26.081C55.4186 26.4349 55.2634 26.9113 55.2634 27.5103V35H51.4246V27.4286C51.4246 26.846 51.2667 26.3859 50.9509 26.0483C50.6351 25.7107 50.2185 25.5419 49.7013 25.5419C49.3528 25.5419 49.0451 25.6263 48.7783 25.7951C48.5115 25.9585 48.3019 26.1926 48.1494 26.4975C48.0024 26.8024 47.9289 27.1618 47.9289 27.5756V35H43.9349ZM68.7645 35.2124C67.964 35.2124 67.2535 35.079 66.6327 34.8121C66.0174 34.5399 65.5301 34.1315 65.1707 33.587C64.8168 33.0371 64.6398 32.3482 64.6398 31.5206C64.6398 30.8236 64.7623 30.2356 65.0074 29.7564C65.2524 29.2772 65.59 28.8879 66.0202 28.5884C66.4503 28.2889 66.9458 28.063 67.5067 27.9105C68.0675 27.7526 68.6665 27.6464 69.3035 27.592C70.0168 27.5266 70.5913 27.4586 71.0269 27.3878C71.4625 27.3116 71.7783 27.2054 71.9743 27.0692C72.1758 26.9277 72.2765 26.7289 72.2765 26.473V26.4322C72.2765 26.0129 72.1323 25.6889 71.8437 25.4602C71.5551 25.2315 71.1657 25.1172 70.6757 25.1172C70.1475 25.1172 69.7228 25.2315 69.4015 25.4602C69.0803 25.6889 68.8761 26.0047 68.789 26.4077L65.1054 26.277C65.2143 25.5147 65.4947 24.834 65.9466 24.2351C66.404 23.6307 67.0302 23.157 67.8252 22.8139C68.6256 22.4654 69.5867 22.2912 70.7084 22.2912C71.5088 22.2912 72.2466 22.3865 72.9218 22.5771C73.597 22.7622 74.185 23.0344 74.686 23.3938C75.1869 23.7478 75.5735 24.1834 75.8458 24.7006C76.1235 25.2179 76.2623 25.8087 76.2623 26.473V35H72.5052V33.2521H72.4072C72.184 33.6768 71.8981 34.0362 71.5496 34.3303C71.2066 34.6243 70.8009 34.8448 70.3327 34.9918C69.8698 35.1388 69.3471 35.2124 68.7645 35.2124ZM69.9978 32.5987C70.4279 32.5987 70.8145 32.5116 71.1576 32.3374C71.5061 32.1631 71.7838 31.9235 71.9907 31.6186C72.1976 31.3082 72.301 30.9489 72.301 30.5405V29.348C72.1867 29.4079 72.0479 29.4624 71.8845 29.5114C71.7266 29.5604 71.5523 29.6067 71.3618 29.6502C71.1712 29.6938 70.9752 29.7319 70.7737 29.7646C70.5722 29.7972 70.3789 29.8272 70.1938 29.8544C69.8181 29.9143 69.4968 30.0069 69.23 30.1321C68.9687 30.2573 68.7672 30.4207 68.6256 30.6222C68.4895 30.8182 68.4214 31.0523 68.4214 31.3246C68.4214 31.7384 68.5684 32.0542 68.8625 32.272C69.162 32.4898 69.5404 32.5987 69.9978 32.5987ZM78.7371 35V32.7212L84.5525 25.6399V25.5582H78.9413V22.4545H89.3142V24.9538L83.9236 31.8146V31.8963H89.5102V35H78.7371ZM97.5961 35.2369C96.2839 35.2369 95.1513 34.9782 94.1984 34.4609C93.251 33.9382 92.5213 33.195 92.0095 32.2312C91.5031 31.262 91.2499 30.1103 91.2499 28.7763C91.2499 27.4804 91.5058 26.3478 92.0177 25.3786C92.5295 24.4039 93.251 23.647 94.1821 23.108C95.1132 22.5634 96.2104 22.2912 97.4736 22.2912C98.3666 22.2912 99.1834 22.43 99.9239 22.7077C100.664 22.9854 101.304 23.3965 101.843 23.9411C102.382 24.4856 102.802 25.158 103.101 25.9585C103.401 26.7534 103.55 27.6655 103.55 28.6946V29.6911H92.6466V27.3714H99.8341C99.8286 26.9467 99.7279 26.5683 99.5319 26.2362C99.3358 25.904 99.0663 25.6454 98.7233 25.4602C98.3857 25.2696 97.9964 25.1744 97.5553 25.1744C97.1088 25.1744 96.7086 25.2751 96.3547 25.4766C96.0007 25.6726 95.7203 25.9421 95.5134 26.2852C95.3065 26.6228 95.1976 27.0066 95.1867 27.4368V29.7972C95.1867 30.3091 95.2874 30.7583 95.4889 31.1449C95.6904 31.526 95.9762 31.8228 96.3465 32.0352C96.7168 32.2475 97.1578 32.3537 97.6697 32.3537C98.0236 32.3537 98.3448 32.3047 98.6334 32.2067C98.922 32.1087 99.1698 31.9644 99.3767 31.7738C99.5836 31.5832 99.7388 31.3491 99.8422 31.0714L103.509 31.1776C103.357 31.9998 103.022 32.7158 102.505 33.3256C101.993 33.93 101.321 34.401 100.487 34.7386C99.6544 35.0708 98.6906 35.2369 97.5961 35.2369Z" fill="#FF0000"/>
<path d="M38.5 10L40.1839 15.1824H45.6329L41.2245 18.3853L42.9084 23.5676L38.5 20.3647L34.0916 23.5676L35.7755 18.3853L31.3671 15.1824H36.8161L38.5 10Z" fill="#F44108"/>
<line x1="-0.346554" y1="24.6396" x2="25.6534" y2="-0.360418" stroke="#F44108"/>
<line x1="25.4991" y1="-0.029361" x2="26.4991" y2="16.9706" stroke="#F44108"/>
<line x1="26" y1="16.5" x2="106" y2="16.5" stroke="#F44108"/>
</g>
<defs>
<clipPath id="clip0_502_2">
<rect width="124" height="50" fill="white"/>
</clipPath>
</defs>
</svg>
